<svg width="2200" height="200" viewBox="0 0 1100 103" fill="none" xmlns="http://www.w3.org/2000/svg">
<path d="M23.1148 51.1829L11.5574 62.7403L0 51.1829L11.5574 39.6255L23.1148 51.1829ZM51.1828 23.1149L70.9955 42.9276L82.553 31.3701L51.1829 0L19.8128 31.3701L31.3701 42.9275L51.1828 23.1149ZM90.8083 39.6255L79.2509 51.1829L90.8083 62.7403L102.366 51.1829L90.8083 39.6255ZM51.1829 79.2509L31.3701 59.4382L19.8128 70.9956L51.1829 102.366L82.553 70.9956L70.9956 59.4382L51.1829 79.2509ZM51.1829 62.7403L62.7403 51.1829L51.1829 39.6255L39.6255 51.1829L51.1829 62.7403ZM173.196 63.8535V63.693C173.196 56.1544 169.187 52.3855 162.691 49.8995C166.7 47.6538 170.069 44.126 170.069 37.7905V37.63C170.069 28.8085 163.012 23.1148 151.544 23.1148H125.481V79.2508H152.185C164.856 79.2509 173.196 74.1184 173.196 63.8535ZM157.798 39.8757C157.798 44.0454 154.35 45.8097 148.897 45.8097H137.51V33.941H149.699C154.912 33.941 157.798 36.0262 157.798 39.7153V39.8757ZM160.926 62.3295C160.926 66.5 157.638 68.4247 152.185 68.4247H137.51V56.0746H151.784C158.119 56.0746 160.926 58.4001 160.926 62.169V62.3295ZM199.094 79.2509V23.1149H186.744V79.2509H199.094ZM265.481 79.2509V23.1149H253.291V57.6785L226.987 23.1148H215.6V79.2508H227.789V43.564L254.976 79.2509L265.481 79.2509ZM333.891 79.2509L309.832 22.7141H298.445L274.386 79.2509H286.977L292.109 66.6604H315.847L320.979 79.2509H333.891ZM311.436 55.7537H296.52L303.978 37.5494L311.436 55.7537ZM392.758 79.2509V23.1149H380.567V57.6785L354.264 23.1148H342.877V79.2508H355.066V43.564L382.252 79.2509L392.758 79.2509ZM456.516 70.189L448.657 62.2497C444.246 66.2597 440.317 68.8255 433.902 68.8255C424.278 68.8255 417.621 60.8063 417.621 51.1824V51.0228C417.621 41.3989 424.438 33.5402 433.902 33.5402C439.515 33.5402 443.925 35.9455 448.256 39.8757L456.115 30.8131C450.903 25.6806 444.566 22.152 433.981 22.152C416.739 22.152 404.71 35.2239 404.71 51.1824V51.3429C404.71 67.4619 416.98 80.2128 433.5 80.2128C444.326 80.2128 450.741 76.3641 456.516 70.189ZM509.207 79.2509V68.2643H478.733V56.4753H505.198V45.4888H478.733V34.1014H508.806V23.1148H466.464V79.2508L509.207 79.2509Z" fill="#F0B90B"/>
<path d="M551.794 37.8428C551.794 34.0822 555.154 31.1217 560.915 31.1217C566.036 31.1217 571.077 33.122 576.118 36.8827L581.399 29.4414C575.718 24.8807 569.237 22.4003 561.075 22.4003C549.953 22.4003 541.952 28.9613 541.952 38.723C541.952 49.1247 548.673 52.6453 560.595 55.5257C570.997 57.9261 573.237 60.0865 573.237 64.1672C573.237 68.4879 569.397 71.2883 563.316 71.2883C556.354 71.2883 550.994 68.6479 545.633 64.0071L539.712 71.0483C546.433 77.0493 554.514 80.0098 563.076 80.0098C574.837 80.0098 583.079 73.7688 583.079 63.207C583.079 53.8455 576.918 49.6048 565.076 46.7243C554.354 44.1639 551.794 42.2435 551.794 37.8428Z" fill="#F0B90B"/>
<path d="M638.26 39.043V79.2096H648.101V23.2004H637.62L620.577 49.6848L603.534 23.2004H593.052V79.2096H602.734V39.203L620.257 65.4474H620.577L638.26 39.043Z" fill="#F0B90B"/>
<path d="M689.882 22.8003H680.76L656.116 79.2096H666.198L671.959 65.6874H698.443L704.124 79.2096H714.526L689.882 22.8003ZM694.842 56.966H675.559L685.161 34.5623L694.842 56.966Z" fill="#F0B90B"/>
<path d="M770.058 79.2096L754.935 58.0061C762.777 55.8458 768.298 50.2449 768.298 40.9633C768.298 30.0015 760.376 23.2004 747.494 23.2004H722.53V79.2096H732.372V59.6864H744.694L758.456 79.2096H770.058ZM758.296 41.5234C758.296 47.2844 753.815 50.965 746.774 50.965H732.372V32.1619H746.694C753.975 32.1619 758.296 35.3624 758.296 41.5234Z" fill="#F0B90B"/>
<path d="M802.201 32.3219H819.964V23.2004H774.517V32.3219H792.28V79.2096H802.201V32.3219Z" fill="#F0B90B"/>
<path d="M897.516 70.2482L891.195 63.8471C886.395 68.3279 881.994 71.1283 875.113 71.1283C864.391 71.1283 856.63 62.1668 856.63 51.125C856.63 40.0832 864.391 31.2817 875.113 31.2817C881.514 31.2817 886.315 34.0822 890.795 38.2429L897.116 30.9617C891.755 25.8408 885.514 22.2402 875.193 22.2402C858.23 22.2402 846.308 35.2824 846.308 51.285C846.308 67.4477 858.47 80.1698 874.793 80.1698C885.274 80.1698 891.675 76.3292 897.516 70.2482Z" fill="#F0B90B"/>
<path d="M942.826 55.6058V79.2096H952.668V23.2004H942.826V46.4842H916.102V23.2004H906.26V79.2096H916.102V55.6058H942.826Z" fill="#F0B90B"/>
<path d="M994.416 22.8003H985.295L960.651 79.2096H970.732L976.493 65.6874H1002.98L1008.66 79.2096H1019.06L994.416 22.8003ZM999.377 56.966H980.094L989.695 34.5623L999.377 56.966Z" fill="#F0B90B"/>
<path d="M1027.62 23.2004V79.2096H1037.47V23.2004H1027.62Z" fill="#F0B90B"/>
<path d="M1089.99 61.9268L1059.98 23.2004H1050.86V79.2096H1060.54V39.3631L1091.43 79.2096H1099.67V23.2004H1089.99V61.9268Z" fill="#F0B90B"/>
</svg>
