<?xml version="1.0" standalone="no"?><!DOCTYPE svg PUBLIC "-//W3C//DTD SVG 1.1//EN" "http://www.w3.org/Graphics/SVG/1.1/DTD/svg11.dtd"><svg t="1555405993461" class="icon" style="" viewBox="0 0 6764 1024" version="1.1" xmlns="http://www.w3.org/2000/svg" p-id="2869" xmlns:xlink="http://www.w3.org/1999/xlink" width="1321.09375" height="200"><defs><style type="text/css"></style></defs><path d="M5296.686545 684.528485h106.868364c56.28897 0 101.717333-17.594182 136.316121-52.844606 34.567758-35.219394 51.882667-80.678788 51.882667-136.316121 0-55.109818-17.314909-100.38303-51.882667-135.912728-34.598788-35.467636-80.058182-53.21697-136.316121-53.216969h-106.868364V684.528485z m-95.26303 89.025939V217.212121h202.131394c84.681697 0 153.848242 26.375758 207.561697 79.065212 53.682424 52.751515 80.554667 119.094303 80.554667 199.090425 0 79.499636-26.996364 145.718303-80.958061 198.71806-53.930667 52.968727-123.004121 79.437576-207.158303 79.437576h-202.100364z m593.113212 0V217.212121h401.935515v87.412364h-306.672484v144.663273h271.825454v87.412363h-271.825454v149.44194h310.551272v87.412363h-405.814303zM6647.652848 217.212121h109.226667l-188.974545 271.825455L6764.606061 773.554424h-112.298667l-142.491152-210.602666-143.266909 210.602666h-109.195636l197.476848-282.934303L6265.111273 217.212121h112.298666l134.733576 199.493818L6647.621818 217.212121z m-1765.500121 555.504485l-412.516848 0.372364V217.212121h408.669091v108.916364h-290.257455v112.733091h255.410424v108.916363h-255.410424v115.991273h294.105212v108.916364z m-508.431515-80.368485v0.620606c-55.792485 61.222788-117.666909 99.35903-222.17697 98.955637-159.402667 0-277.814303-126.386424-277.814303-285.913212v-1.582546c0-157.66497 116.084364-287.216485 282.468849-287.216485 102.182788 0 163.281455 34.971152 213.550545 85.860849l-75.744969 89.15006c-42.077091-38.94303-84.433455-62.805333-138.581334-62.805333-91.291152 0-157.106424 77.85503-157.106424 173.211151v1.582546c0 95.480242 64.263758 174.700606 157.106424 174.700606 61.936485 0 99.886545-25.537939 142.429091-65.163636l75.869091 78.630788z m-615.299879 80.151273l-101.158788 0.620606-262.671515-353.373091v353.342061h-117.511757V217.212121h110.002424l253.703758 342.264243V217.212121h117.635878v555.287273z m-568.102788 3.971879l-124.586666 0.620606-49.493334-124.741818H2787.141818l-49.493333 124.741818h-121.514667L2848.240485 217.212121h109.878303l232.199757 559.259152z m-216.653575-232.634182l-71.990303-180.348121-71.990303 180.348121h143.980606z m-443.516122 228.693333l-101.40703 0.558546-262.299151-353.342061v353.342061h-117.635879V217.212121h109.909333l253.703758 342.264243V217.212121h117.728969v555.287273z m-640.651636 0l-119.187394 0.558546V217.212121h119.156364v555.287273z m-249.856-151.831272c0 101.996606-80.492606 152.793212-202.845091 152.389818H1179.151515V217.212121h251.469576c110.685091 0 178.827636 56.35103 178.827636 143.701334v1.582545c0 62.805333-32.612848 97.745455-71.214545 119.932121 62.805333 24.669091 101.40703 61.998545 101.40703 136.657455v1.613576z m-118.411636-15.36v-0.99297c0-37.329455-27.120485-60.322909-88.281212-60.322909H1295.204848v121.731879h141.560243c52.689455 0 84.433455-19.114667 84.433454-60.416z m-30.192485-222.332122v-0.992969c0-36.553697-27.896242-57.250909-78.196364-57.250909h-117.604848v116.984242h109.909333c52.596364 0 85.891879-17.43903 85.891879-58.740364zM97.993697 511.00703l0.310303 197.756122 168.184242 98.831515v115.401697L0 766.882909V453.321697l97.993697 57.716364z m0-197.849212v115.401697L0 370.812121V255.441455l97.993697-57.592243 98.024727 57.592243-98.024727 57.716363z m238.281697-57.716363l98.086788-57.592243 97.931636 57.592243-98.024727 57.716363-97.993697-57.716363z m-167.811879 412.082424v-115.370667l98.024727 57.685333v115.401697l-98.024727-57.716363z m167.811879 181.31006l97.993697 57.716364 98.024727-57.716364v115.370667l-98.024727 57.716364-97.993697-57.716364v-115.370667zM672.73697 255.441455l97.993697-57.592243 98.024727 57.592243v115.432727l-98.024727 57.685333v-115.432727L672.73697 255.472485z m97.993697 453.352727l0.124121-197.787152L868.848485 453.290667v313.592242l-266.302061 156.113455v-115.401697l168.184243-98.831515z m-70.066425-41.270303l-97.993697 57.716363v-115.432727l97.993697-57.654303v115.401697z m0-313.126788l0.186182 115.401697-168.184242 98.800485v198.283636l-97.993697 57.685333-98.024727-57.716363v-198.252606L168.494545 469.798788v-115.432727l98.024728-57.685334 167.873939 98.924606 168.308364-98.924606 97.993697 57.716364zM168.494545 156.64097L434.331152 0l266.30206 156.64097-97.993697 57.685333-168.308363-98.924606-167.87394 98.924606-98.024727-57.716364z" fill="#F0B90B" p-id="2870"></path></svg>