<svg width="512" height="512" viewBox="0 0 512 512" fill="none" xmlns="http://www.w3.org/2000/svg">
<path d="M57.7014 198.298L0 256L57.7014 313.702L115.403 256L57.7014 198.298ZM256 115.81L355.149 214.959L412.851 157.257L256 0L99.1488 156.851L156.851 214.552L256 115.81ZM454.299 198.298L396.597 256L454.299 313.702L512 256L454.299 198.298ZM256 396.597L156.851 297.448L99.1488 355.149L256 512L412.851 355.149L355.149 297.448L256 396.597ZM256 313.702L313.701 256L256 198.298L198.299 256L256 313.702Z" fill="#F0B90B"/>
</svg>
